#N canvas 827 239 527 327 12;
#X msg 587 269 0;
#X msg 621 269 1;
#X msg 652 269 2;
#X floatatom 667 389 5 0 0 0 empty - - 12;
#X msg 682 269 3;
#X msg 712 269 4;
#X msg 743 270 5;
#X msg 772 270 6;
#X msg 802 270 7;
#X msg 832 270 8;
#X msg 862 270 9;
#X msg 892 270 10;
#X msg 937 270 11;
#X obj 496 659 outlet;
#X obj 486 119 keyname;
#X obj 1127 349 int;
#X obj 1127 451 * 12;
#X obj 1049 494 +;
#X obj 1049 689 outlet;
#X msg 665 168 \$0-keyname: \$1;
#X obj 818 160 print;
#X obj 587 209 select a w s e d f t g y h u j n m;
#X obj 1092 220 spigot;
#X obj 1117 160 r sp;
#X obj 1181 220 spigot;
#X obj 1206 160 r sp;
#X floatatom 1132 389 5 0 10 0 empty - - 12;
#X msg 1112 278 1;
#X obj 1137 309 +;
#X msg 1164 280 -1;
#X obj 209 119 r junk;
#X obj 637 119 s sp;
#X obj 994 305 s junk;
#X obj 986 278 b;
#X obj 662 451 s notjunk;
#X obj 666 414 b;
#X obj 284 119 r notjunk;
#X msg 359 168 1;
#X msg 278 166 0;
#X obj 317 208 f;
#X obj 329 258 &&;
#X floatatom 325 306 5 0 0 0 empty - - 12;
#X obj 479 185 moses 1;
#X connect 0 0 3 0 empty;
#X connect 1 0 3 0 empty;
#X connect 2 0 3 0 empty;
#X connect 3 0 17 0 empty;
#X connect 3 0 35 0 empty;
#X connect 4 0 3 0 empty;
#X connect 5 0 3 0 empty;
#X connect 6 0 3 0 empty;
#X connect 7 0 3 0 empty;
#X connect 8 0 3 0 empty;
#X connect 9 0 3 0 empty;
#X connect 10 0 3 0 empty;
#X connect 11 0 3 0 empty;
#X connect 12 0 3 0 empty;
#X connect 14 0 31 0 empty;
#X connect 14 0 42 0 empty;
#X connect 14 1 21 0 empty;
#X connect 15 0 26 0 empty;
#X connect 15 0 28 1 empty;
#X connect 16 0 17 1 empty;
#X connect 17 0 18 0 empty;
#X connect 19 0 20 0 empty;
#X connect 21 0 0 0 empty;
#X connect 21 1 1 0 empty;
#X connect 21 2 2 0 empty;
#X connect 21 3 4 0 empty;
#X connect 21 4 5 0 empty;
#X connect 21 5 6 0 empty;
#X connect 21 6 7 0 empty;
#X connect 21 7 8 0 empty;
#X connect 21 8 9 0 empty;
#X connect 21 9 10 0 empty;
#X connect 21 10 11 0 empty;
#X connect 21 11 12 0 empty;
#X connect 21 12 24 0 empty;
#X connect 21 13 22 0 empty;
#X connect 21 14 33 0 empty;
#X connect 22 0 27 0 empty;
#X connect 23 0 22 1 empty;
#X connect 24 0 29 0 empty;
#X connect 25 0 24 1 empty;
#X connect 26 0 16 0 empty;
#X connect 27 0 28 0 empty;
#X connect 28 0 15 0 empty;
#X connect 29 0 28 0 empty;
#X connect 30 0 38 0 empty;
#X connect 33 0 32 0 empty;
#X connect 35 0 34 0 empty;
#X connect 36 0 37 0 empty;
#X connect 37 0 39 0 empty;
#X connect 38 0 39 0 empty;
#X connect 39 0 40 0 empty;
#X connect 40 0 41 0 empty;
#X connect 41 0 13 0 empty;
#X connect 42 0 41 0 empty;
#X connect 42 1 40 1 empty;
